<svg xmlns="http://www.w3.org/2000/svg" viewBox="0 0 1600 900" fill="none">
  <defs>
    <linearGradient id="bg" x1="800" y1="0" x2="800" y2="900" gradientUnits="userSpaceOnUse">
      <stop stop-color="#061122"/>
      <stop offset="0.52" stop-color="#102349"/>
      <stop offset="1" stop-color="#07111D"/>
    </linearGradient>
    <radialGradient id="glow" cx="0" cy="0" r="1" gradientUnits="userSpaceOnUse" gradientTransform="translate(1200 200) rotate(90) scale(220 260)">
      <stop stop-color="#FFD494" stop-opacity=".82"/>
      <stop offset="1" stop-color="#FFD494" stop-opacity="0"/>
    </radialGradient>
    <linearGradient id="pitch" x1="800" y1="520" x2="800" y2="900" gradientUnits="userSpaceOnUse">
      <stop stop-color="#2E7648"/>
      <stop offset="1" stop-color="#0E2418"/>
    </linearGradient>
    <linearGradient id="upperBand" x1="0" y1="0" x2="1600" y2="0" gradientUnits="userSpaceOnUse">
      <stop stop-color="#21408C"/>
      <stop offset=".48" stop-color="#A51931"/>
      <stop offset="1" stop-color="#21408C"/>
    </linearGradient>
  </defs>
  <rect width="1600" height="900" fill="url(#bg)"/>
  <rect width="1600" height="900" fill="url(#glow)"/>
  <g opacity=".36">
    <rect x="0" y="108" width="1600" height="10" fill="#E8EEF9"/>
    <rect x="0" y="124" width="1600" height="2" fill="#9DB2D8"/>
  </g>
  <path d="M0 184C210 126 421 95 800 95C1179 95 1390 126 1600 184V388H0V184Z" fill="#081425"/>
  <path d="M0 210C196 162 429 132 800 132C1171 132 1404 162 1600 210V256H0V210Z" fill="url(#upperBand)"/>
  <g opacity=".88">
    <rect x="0" y="264" width="1600" height="40" fill="#17315B"/>
    <rect x="0" y="314" width="1600" height="48" fill="#F1F3F7"/>
    <rect x="0" y="374" width="1600" height="44" fill="#A51931"/>
    <rect x="0" y="430" width="1600" height="34" fill="#17315B"/>
  </g>
  <path d="M0 462C142 406 355 368 800 368C1245 368 1458 406 1600 462V615H0V462Z" fill="#0C1830"/>
  <g opacity=".78">
    <rect x="0" y="496" width="1600" height="26" fill="#17315B"/>
    <rect x="0" y="532" width="1600" height="22" fill="#A51931"/>
    <rect x="0" y="564" width="1600" height="16" fill="#E7EBF5"/>
  </g>
  <g opacity=".24">
    <rect x="110" y="258" width="18" height="280" fill="#F5F8FF"/>
    <rect x="378" y="224" width="14" height="328" fill="#F5F8FF"/>
    <rect x="1220" y="224" width="14" height="328" fill="#F5F8FF"/>
    <rect x="1470" y="258" width="18" height="280" fill="#F5F8FF"/>
  </g>
  <g opacity=".88">
    <circle cx="202" cy="170" r="62" fill="#FFF6DD" fill-opacity=".22"/>
    <circle cx="1386" cy="170" r="78" fill="#FFF6DD" fill-opacity=".28"/>
    <circle cx="148" cy="220" r="34" fill="#FFF6DD" fill-opacity=".18"/>
    <circle cx="1450" cy="232" r="34" fill="#FFF6DD" fill-opacity=".18"/>
  </g>
  <path d="M-80 900L454 556H1146L1680 900H-80Z" fill="url(#pitch)"/>
  <path d="M736 630C766 616 834 616 864 630V900H736V630Z" fill="#F2F5F9" fill-opacity=".18"/>
  <circle cx="800" cy="676" r="86" stroke="#F2F5F9" stroke-opacity=".34" stroke-width="6"/>
  <path d="M586 900C592 786 669 710 800 710C931 710 1008 786 1014 900" stroke="#F2F5F9" stroke-opacity=".18" stroke-width="8"/>
  <rect x="344" y="616" width="190" height="110" rx="10" stroke="#F2F5F9" stroke-opacity=".28" stroke-width="6"/>
  <rect x="1066" y="616" width="190" height="110" rx="10" stroke="#F2F5F9" stroke-opacity=".28" stroke-width="6"/>
  <path d="M800 556V900" stroke="#F2F5F9" stroke-opacity=".34" stroke-width="6"/>
</svg>
