<svg xmlns="http://www.w3.org/2000/svg" viewBox="0 0 1600 900" fill="none">
  <defs>
    <linearGradient id="bg" x1="800" y1="0" x2="800" y2="900" gradientUnits="userSpaceOnUse">
      <stop stop-color="#071223"/>
      <stop offset=".58" stop-color="#122851"/>
      <stop offset="1" stop-color="#09121D"/>
    </linearGradient>
    <linearGradient id="stands" x1="0" y1="0" x2="1600" y2="0" gradientUnits="userSpaceOnUse">
      <stop stop-color="#1F3E88"/>
      <stop offset=".5" stop-color="#A41B31"/>
      <stop offset="1" stop-color="#1F3E88"/>
    </linearGradient>
    <radialGradient id="lights" cx="0" cy="0" r="1" gradientUnits="userSpaceOnUse" gradientTransform="translate(1320 182) rotate(90) scale(210 240)">
      <stop stop-color="#FFE0A5" stop-opacity=".82"/>
      <stop offset="1" stop-color="#FFE0A5" stop-opacity="0"/>
    </radialGradient>
  </defs>
  <rect width="1600" height="900" fill="url(#bg)"/>
  <rect width="1600" height="900" fill="url(#lights)"/>
  <path d="M0 198C282 124 520 100 800 100C1080 100 1318 124 1600 198V346H0V198Z" fill="#0A1526"/>
  <rect x="0" y="232" width="1600" height="34" fill="url(#stands)"/>
  <rect x="0" y="282" width="1600" height="28" fill="#E9EEF7"/>
  <rect x="0" y="326" width="1600" height="34" fill="#A41B31"/>
  <path d="M0 394C198 336 451 300 800 300C1149 300 1402 336 1600 394V540H0V394Z" fill="#10203B"/>
  <rect x="0" y="430" width="1600" height="26" fill="#1F3E88" fill-opacity=".94"/>
  <rect x="0" y="470" width="1600" height="18" fill="#A41B31" fill-opacity=".9"/>
  <g opacity=".24">
    <rect x="154" y="206" width="10" height="324" fill="#F8FBFF"/>
    <rect x="456" y="170" width="8" height="388" fill="#F8FBFF"/>
    <rect x="1140" y="170" width="8" height="388" fill="#F8FBFF"/>
    <rect x="1442" y="206" width="10" height="324" fill="#F8FBFF"/>
  </g>
  <g opacity=".84">
    <circle cx="1362" cy="186" r="70" fill="#FFF4D9" fill-opacity=".24"/>
    <circle cx="1438" cy="228" r="34" fill="#FFF4D9" fill-opacity=".18"/>
  </g>
  <path d="M80 900L516 550H1084L1520 900H80Z" fill="#235837"/>
  <path d="M800 550V900" stroke="#F1F5FB" stroke-opacity=".34" stroke-width="6"/>
  <circle cx="800" cy="658" r="80" stroke="#F1F5FB" stroke-opacity=".34" stroke-width="6"/>
  <path d="M594 900C598 804 673 738 800 738C927 738 1002 804 1006 900" stroke="#F1F5FB" stroke-opacity=".18" stroke-width="8"/>
</svg>
