<svg xmlns="http://www.w3.org/2000/svg" viewBox="0 0 1600 900" fill="none">
  <defs>
    <linearGradient id="bg" x1="800" y1="0" x2="800" y2="900" gradientUnits="userSpaceOnUse">
      <stop stop-color="#071224"/>
      <stop offset=".58" stop-color="#112449"/>
      <stop offset="1" stop-color="#08111E"/>
    </linearGradient>
    <radialGradient id="light" cx="0" cy="0" r="1" gradientUnits="userSpaceOnUse" gradientTransform="translate(1260 184) rotate(90) scale(220 240)">
      <stop stop-color="#FFE0A6" stop-opacity=".84"/>
      <stop offset="1" stop-color="#FFE0A6" stop-opacity="0"/>
    </radialGradient>
    <linearGradient id="track" x1="0" y1="0" x2="1" y2="1">
      <stop stop-color="#1A3B80"/>
      <stop offset=".5" stop-color="#A61A32"/>
      <stop offset="1" stop-color="#1A3B80"/>
    </linearGradient>
    <linearGradient id="grass" x1="0" y1="0" x2="0" y2="1">
      <stop stop-color="#31784A"/>
      <stop offset="1" stop-color="#10281B"/>
    </linearGradient>
  </defs>
  <rect width="1600" height="900" fill="url(#bg)"/>
  <rect width="1600" height="900" fill="url(#light)"/>
  <path d="M0 210C250 146 476 120 800 120C1124 120 1350 146 1600 210V352H0V210Z" fill="#0B1527"/>
  <rect x="0" y="254" width="1600" height="36" fill="url(#track)"/>
  <rect x="0" y="308" width="1600" height="20" fill="#EEF2F8"/>
  <path d="M0 900L300 540H1300L1600 900H0Z" fill="url(#grass)"/>
  <path d="M190 900L460 540" stroke="#F4F7FC" stroke-opacity=".16" stroke-width="5"/>
  <path d="M1410 900L1140 540" stroke="#F4F7FC" stroke-opacity=".16" stroke-width="5"/>
  <path d="M520 900L702 540" stroke="#F4F7FC" stroke-opacity=".12" stroke-width="4"/>
  <path d="M1080 900L898 540" stroke="#F4F7FC" stroke-opacity=".12" stroke-width="4"/>
  <path d="M620 702C680 650 758 624 858 622" stroke="#FFFFFF" stroke-opacity=".18" stroke-width="10" stroke-linecap="round"/>
  <path d="M690 748C760 692 846 660 970 654" stroke="#FFFFFF" stroke-opacity=".12" stroke-width="8" stroke-linecap="round"/>
  <path d="M760 794C832 736 920 702 1038 696" stroke="#FFFFFF" stroke-opacity=".08" stroke-width="6" stroke-linecap="round"/>
  <circle cx="1262" cy="188" r="80" fill="#FFF4DA" fill-opacity=".22"/>
  <circle cx="1328" cy="228" r="34" fill="#FFF4DA" fill-opacity=".18"/>
</svg>
